<svg xmlns="http://www.w3.org/2000/svg" width="1100" height="520" viewBox="0 0 1100 520">
<rect width="100%" height="100%" fill="#fcfbf7"/>
<rect x="20" y="20" width="1060" height="480" rx="18" fill="#fffef8" stroke="#d6cfbf" stroke-width="1.5"/>
<text x="550" y="28" text-anchor="middle" font-family="JetBrains Mono" font-size="20" fill="#3a3127">log2(x)</text>
<rect x="80" y="40" width="990" height="360" fill="#fffdfa" stroke="#e5dece" stroke-width="1"/>
<line x1="80" y1="400.00" x2="1070" y2="400.00" stroke="#ebe4d6" stroke-width="1"/>
<text x="70" y="404.00" text-anchor="end" font-family="JetBrains Mono" font-size="11" fill="#6d6254">-4.00</text>
<line x1="80" y1="340.00" x2="1070" y2="340.00" stroke="#ebe4d6" stroke-width="1"/>
<text x="70" y="344.00" text-anchor="end" font-family="JetBrains Mono" font-size="11" fill="#6d6254">-2.67</text>
<line x1="80" y1="280.00" x2="1070" y2="280.00" stroke="#ebe4d6" stroke-width="1"/>
<text x="70" y="284.00" text-anchor="end" font-family="JetBrains Mono" font-size="11" fill="#6d6254">-1.33</text>
<line x1="80" y1="220.00" x2="1070" y2="220.00" stroke="#ebe4d6" stroke-width="1"/>
<text x="70" y="224.00" text-anchor="end" font-family="JetBrains Mono" font-size="11" fill="#6d6254">0.00</text>
<line x1="80" y1="160.00" x2="1070" y2="160.00" stroke="#ebe4d6" stroke-width="1"/>
<text x="70" y="164.00" text-anchor="end" font-family="JetBrains Mono" font-size="11" fill="#6d6254">1.33</text>
<line x1="80" y1="100.00" x2="1070" y2="100.00" stroke="#ebe4d6" stroke-width="1"/>
<text x="70" y="104.00" text-anchor="end" font-family="JetBrains Mono" font-size="11" fill="#6d6254">2.67</text>
<line x1="80" y1="40.00" x2="1070" y2="40.00" stroke="#ebe4d6" stroke-width="1"/>
<text x="70" y="44.00" text-anchor="end" font-family="JetBrains Mono" font-size="11" fill="#6d6254">4.00</text>
<line x1="80.00" y1="40" x2="80.00" y2="400" stroke="#ebe4d6" stroke-width="1"/>
<text x="80.00" y="420" text-anchor="middle" font-family="JetBrains Mono" font-size="11" fill="#6d6254">0.10</text>
<line x1="203.75" y1="40" x2="203.75" y2="400" stroke="#ebe4d6" stroke-width="1"/>
<text x="203.75" y="420" text-anchor="middle" font-family="JetBrains Mono" font-size="11" fill="#6d6254">1.34</text>
<line x1="327.50" y1="40" x2="327.50" y2="400" stroke="#ebe4d6" stroke-width="1"/>
<text x="327.50" y="420" text-anchor="middle" font-family="JetBrains Mono" font-size="11" fill="#6d6254">2.57</text>
<line x1="451.25" y1="40" x2="451.25" y2="400" stroke="#ebe4d6" stroke-width="1"/>
<text x="451.25" y="420" text-anchor="middle" font-family="JetBrains Mono" font-size="11" fill="#6d6254">3.81</text>
<line x1="575.00" y1="40" x2="575.00" y2="400" stroke="#ebe4d6" stroke-width="1"/>
<text x="575.00" y="420" text-anchor="middle" font-family="JetBrains Mono" font-size="11" fill="#6d6254">5.05</text>
<line x1="698.75" y1="40" x2="698.75" y2="400" stroke="#ebe4d6" stroke-width="1"/>
<text x="698.75" y="420" text-anchor="middle" font-family="JetBrains Mono" font-size="11" fill="#6d6254">6.29</text>
<line x1="822.50" y1="40" x2="822.50" y2="400" stroke="#ebe4d6" stroke-width="1"/>
<text x="822.50" y="420" text-anchor="middle" font-family="JetBrains Mono" font-size="11" fill="#6d6254">7.52</text>
<line x1="946.25" y1="40" x2="946.25" y2="400" stroke="#ebe4d6" stroke-width="1"/>
<text x="946.25" y="420" text-anchor="middle" font-family="JetBrains Mono" font-size="11" fill="#6d6254">8.76</text>
<line x1="1070.00" y1="40" x2="1070.00" y2="400" stroke="#ebe4d6" stroke-width="1"/>
<text x="1070.00" y="420" text-anchor="middle" font-family="JetBrains Mono" font-size="11" fill="#6d6254">10.00</text>
<line x1="80" y1="220.00" x2="1070" y2="220.00" stroke="#615548" stroke-width="1.5"/>
<polyline points="80.00,369.49 82.00,357.65 84.00,347.64 86.00,338.97 88.00,331.33 90.00,324.49 92.00,318.30 94.00,312.65 96.00,307.45 98.00,302.64 100.00,298.16 102.00,293.97 104.00,290.04 106.00,286.33 108.00,282.82 110.00,279.49 112.00,276.32 114.00,273.30 116.00,270.41 118.00,267.65 120.00,265.00 122.00,262.45 124.00,260.00 126.00,257.64 128.00,255.36 130.00,253.16 132.00,251.03 134.00,248.97 136.00,246.98 138.00,245.04 140.00,243.16 142.00,241.33 144.00,239.55 146.00,237.82 148.00,236.13 150.00,234.49 152.00,232.88 154.00,231.32 156.00,229.79 158.00,228.30 160.00,226.84 162.00,225.41 164.00,224.02 166.00,222.65 168.00,221.31 170.00,220.00 172.00,218.71 174.00,217.45 176.00,216.22 178.00,215.00 180.00,213.81 182.00,212.64 184.00,211.49 186.00,210.36 188.00,209.25 190.00,208.16 192.00,207.09 194.00,206.03 196.00,205.00 198.00,203.97 200.00,202.97 202.00,201.98 204.00,201.00 206.00,200.04 208.00,199.09 210.00,198.16 212.00,197.23 214.00,196.33 216.00,195.43 218.00,194.55 220.00,193.68 222.00,192.82 224.00,191.97 226.00,191.13 228.00,190.30 230.00,189.49 232.00,188.68 234.00,187.88 236.00,187.10 238.00,186.32 240.00,185.55 242.00,184.79 244.00,184.04 246.00,183.30 248.00,182.57 250.00,181.84 252.00,181.12 254.00,180.41 256.00,179.71 258.00,179.02 260.00,178.33 262.00,177.65 264.00,176.98 266.00,176.31 268.00,175.65 270.00,175.00 272.00,174.35 274.00,173.71 276.00,173.08 278.00,172.45 280.00,171.83 282.00,171.22 284.00,170.61 286.00,170.00 288.00,169.41 290.00,168.81 292.00,168.22 294.00,167.64 296.00,167.07 298.00,166.49 300.00,165.93 302.00,165.36 304.00,164.81 306.00,164.25 308.00,163.71 310.00,163.16 312.00,162.62 314.00,162.09 316.00,161.56 318.00,161.03 320.00,160.51 322.00,160.00 324.00,159.48 326.00,158.97 328.00,158.47 330.00,157.97 332.00,157.47 334.00,156.98 336.00,156.49 338.00,156.00 340.00,155.52 342.00,155.04 344.00,154.56 346.00,154.09 348.00,153.62 350.00,153.16 352.00,152.69 354.00,152.23 356.00,151.78 358.00,151.33 360.00,150.88 362.00,150.43 364.00,149.99 366.00,149.55 368.00,149.11 370.00,148.68 372.00,148.25 374.00,147.82 376.00,147.39 378.00,146.97 380.00,146.55 382.00,146.13 384.00,145.72 386.00,145.30 388.00,144.89 390.00,144.49 392.00,144.08 394.00,143.68 396.00,143.28 398.00,142.88 400.00,142.49 402.00,142.10 404.00,141.71 406.00,141.32 408.00,140.93 410.00,140.55 412.00,140.17 414.00,139.79 416.00,139.42 418.00,139.04 420.00,138.67 422.00,138.30 424.00,137.93 426.00,137.57 428.00,137.20 430.00,136.84 432.00,136.48 434.00,136.12 436.00,135.77 438.00,135.41 440.00,135.06 442.00,134.71 444.00,134.36 446.00,134.02 448.00,133.67 450.00,133.33 452.00,132.99 454.00,132.65 456.00,132.31 458.00,131.98 460.00,131.64 462.00,131.31 464.00,130.98 466.00,130.65 468.00,130.33 470.00,130.00 472.00,129.68 474.00,129.35 476.00,129.03 478.00,128.71 480.00,128.40 482.00,128.08 484.00,127.77 486.00,127.45 488.00,127.14 490.00,126.83 492.00,126.52 494.00,126.22 496.00,125.91 498.00,125.61 500.00,125.30 502.00,125.00 504.00,124.70 506.00,124.41 508.00,124.11 510.00,123.81 512.00,123.52 514.00,123.22 516.00,122.93 518.00,122.64 520.00,122.35 522.00,122.07 524.00,121.78 526.00,121.49 528.00,121.21 530.00,120.93 532.00,120.64 534.00,120.36 536.00,120.09 538.00,119.81 540.00,119.53 542.00,119.25 544.00,118.98 546.00,118.71 548.00,118.43 550.00,118.16 552.00,117.89 554.00,117.62 556.00,117.36 558.00,117.09 560.00,116.82 562.00,116.56 564.00,116.30 566.00,116.03 568.00,115.77 570.00,115.51 572.00,115.25 574.00,115.00 576.00,114.74 578.00,114.48 580.00,114.23 582.00,113.97 584.00,113.72 586.00,113.47 588.00,113.22 590.00,112.97 592.00,112.72 594.00,112.47 596.00,112.22 598.00,111.98 600.00,111.73 602.00,111.49 604.00,111.24 606.00,111.00 608.00,110.76 610.00,110.52 612.00,110.28 614.00,110.04 616.00,109.80 618.00,109.56 620.00,109.33 622.00,109.09 624.00,108.86 626.00,108.62 628.00,108.39 630.00,108.16 632.00,107.92 634.00,107.69 636.00,107.46 638.00,107.23 640.00,107.01 642.00,106.78 644.00,106.55 646.00,106.33 648.00,106.10 650.00,105.88 652.00,105.65 654.00,105.43 656.00,105.21 658.00,104.99 660.00,104.77 662.00,104.55 664.00,104.33 666.00,104.11 668.00,103.89 670.00,103.68 672.00,103.46 674.00,103.25 676.00,103.03 678.00,102.82 680.00,102.60 682.00,102.39 684.00,102.18 686.00,101.97 688.00,101.76 690.00,101.55 692.00,101.34 694.00,101.13 696.00,100.92 698.00,100.72 700.00,100.51 702.00,100.30 704.00,100.10 706.00,99.89 708.00,99.69 710.00,99.49 712.00,99.28 714.00,99.08 716.00,98.88 718.00,98.68 720.00,98.48 722.00,98.28 724.00,98.08 726.00,97.88 728.00,97.69 730.00,97.49 732.00,97.29 734.00,97.10 736.00,96.90 738.00,96.71 740.00,96.51 742.00,96.32 744.00,96.13 746.00,95.93 748.00,95.74 750.00,95.55 752.00,95.36 754.00,95.17 756.00,94.98 758.00,94.79 760.00,94.60 762.00,94.42 764.00,94.23 766.00,94.04 768.00,93.85 770.00,93.67 772.00,93.48 774.00,93.30 776.00,93.11 778.00,92.93 780.00,92.75 782.00,92.57 784.00,92.38 786.00,92.20 788.00,92.02 790.00,91.84 792.00,91.66 794.00,91.48 796.00,91.30 798.00,91.12 800.00,90.94 802.00,90.77 804.00,90.59 806.00,90.41 808.00,90.24 810.00,90.06 812.00,89.89 814.00,89.71 816.00,89.54 818.00,89.36 820.00,89.19 822.00,89.02 824.00,88.84 826.00,88.67 828.00,88.50 830.00,88.33 832.00,88.16 834.00,87.99 836.00,87.82 838.00,87.65 840.00,87.48 842.00,87.31 844.00,87.15 846.00,86.98 848.00,86.81 850.00,86.64 852.00,86.48 854.00,86.31 856.00,86.15 858.00,85.98 860.00,85.82 862.00,85.65 864.00,85.49 866.00,85.33 868.00,85.16 870.00,85.00 872.00,84.84 874.00,84.68 876.00,84.51 878.00,84.35 880.00,84.19 882.00,84.03 884.00,83.87 886.00,83.71 888.00,83.56 890.00,83.40 892.00,83.24 894.00,83.08 896.00,82.92 898.00,82.77 900.00,82.61 902.00,82.45 904.00,82.30 906.00,82.14 908.00,81.99 910.00,81.83 912.00,81.68 914.00,81.52 916.00,81.37 918.00,81.22 920.00,81.06 922.00,80.91 924.00,80.76 926.00,80.61 928.00,80.46 930.00,80.30 932.00,80.15 934.00,80.00 936.00,79.85 938.00,79.70 940.00,79.55 942.00,79.41 944.00,79.26 946.00,79.11 948.00,78.96 950.00,78.81 952.00,78.67 954.00,78.52 956.00,78.37 958.00,78.22 960.00,78.08 962.00,77.93 964.00,77.79 966.00,77.64 968.00,77.50 970.00,77.35 972.00,77.21 974.00,77.07 976.00,76.92 978.00,76.78 980.00,76.64 982.00,76.49 984.00,76.35 986.00,76.21 988.00,76.07 990.00,75.93 992.00,75.79 994.00,75.64 996.00,75.50 998.00,75.36 1000.00,75.22 1002.00,75.09 1004.00,74.95 1006.00,74.81 1008.00,74.67 1010.00,74.53 1012.00,74.39 1014.00,74.25 1016.00,74.12 1018.00,73.98 1020.00,73.84 1022.00,73.71 1024.00,73.57 1026.00,73.43 1028.00,73.30 1030.00,73.16 1032.00,73.03 1034.00,72.89 1036.00,72.76 1038.00,72.62 1040.00,72.49 1042.00,72.36 1044.00,72.22 1046.00,72.09 1048.00,71.96 1050.00,71.82 1052.00,71.69 1054.00,71.56 1056.00,71.43 1058.00,71.30 1060.00,71.17 1062.00,71.03 1064.00,70.90 1066.00,70.77 1068.00,70.64 1070.00,70.51" fill="none" stroke="#bf5b39" stroke-width="2.2" stroke-linejoin="round" stroke-linecap="round"/>
<text x="575" y="508" text-anchor="middle" font-family="JetBrains Mono" font-size="12" fill="#4c4338">x</text>
<text x="22" y="220" transform="rotate(-90 22 220)" text-anchor="middle" font-family="JetBrains Mono" font-size="12" fill="#4c4338">y</text>
<text x="1066" y="508" text-anchor="end" font-family="JetBrains Mono" font-size="10" fill="#8c7f71">Y clipped to [-4.00; 4.00]</text>
</svg>