<svg xmlns="http://www.w3.org/2000/svg" width="1100" height="520" viewBox="0 0 1100 520">
<rect width="100%" height="100%" fill="#fcfbf7"/>
<rect x="20" y="20" width="1060" height="480" rx="18" fill="#fffef8" stroke="#d6cfbf" stroke-width="1.5"/>
<text x="550" y="28" text-anchor="middle" font-family="JetBrains Mono" font-size="20" fill="#3a3127">system(x)</text>
<rect x="80" y="40" width="990" height="360" fill="#fffdfa" stroke="#e5dece" stroke-width="1"/>
<line x1="80" y1="400.00" x2="1070" y2="400.00" stroke="#ebe4d6" stroke-width="1"/>
<text x="70" y="404.00" text-anchor="end" font-family="JetBrains Mono" font-size="11" fill="#6d6254">-20.00</text>
<line x1="80" y1="340.00" x2="1070" y2="340.00" stroke="#ebe4d6" stroke-width="1"/>
<text x="70" y="344.00" text-anchor="end" font-family="JetBrains Mono" font-size="11" fill="#6d6254">-12.50</text>
<line x1="80" y1="280.00" x2="1070" y2="280.00" stroke="#ebe4d6" stroke-width="1"/>
<text x="70" y="284.00" text-anchor="end" font-family="JetBrains Mono" font-size="11" fill="#6d6254">-5.00</text>
<line x1="80" y1="220.00" x2="1070" y2="220.00" stroke="#ebe4d6" stroke-width="1"/>
<text x="70" y="224.00" text-anchor="end" font-family="JetBrains Mono" font-size="11" fill="#6d6254">2.50</text>
<line x1="80" y1="160.00" x2="1070" y2="160.00" stroke="#ebe4d6" stroke-width="1"/>
<text x="70" y="164.00" text-anchor="end" font-family="JetBrains Mono" font-size="11" fill="#6d6254">10.00</text>
<line x1="80" y1="100.00" x2="1070" y2="100.00" stroke="#ebe4d6" stroke-width="1"/>
<text x="70" y="104.00" text-anchor="end" font-family="JetBrains Mono" font-size="11" fill="#6d6254">17.50</text>
<line x1="80" y1="40.00" x2="1070" y2="40.00" stroke="#ebe4d6" stroke-width="1"/>
<text x="70" y="44.00" text-anchor="end" font-family="JetBrains Mono" font-size="11" fill="#6d6254">25.00</text>
<line x1="80.00" y1="40" x2="80.00" y2="400" stroke="#ebe4d6" stroke-width="1"/>
<text x="80.00" y="420" text-anchor="middle" font-family="JetBrains Mono" font-size="11" fill="#6d6254">-6.28</text>
<line x1="203.75" y1="40" x2="203.75" y2="400" stroke="#ebe4d6" stroke-width="1"/>
<text x="203.75" y="420" text-anchor="middle" font-family="JetBrains Mono" font-size="11" fill="#6d6254">-4.25</text>
<line x1="327.50" y1="40" x2="327.50" y2="400" stroke="#ebe4d6" stroke-width="1"/>
<text x="327.50" y="420" text-anchor="middle" font-family="JetBrains Mono" font-size="11" fill="#6d6254">-2.21</text>
<line x1="451.25" y1="40" x2="451.25" y2="400" stroke="#ebe4d6" stroke-width="1"/>
<text x="451.25" y="420" text-anchor="middle" font-family="JetBrains Mono" font-size="11" fill="#6d6254">-0.18</text>
<line x1="575.00" y1="40" x2="575.00" y2="400" stroke="#ebe4d6" stroke-width="1"/>
<text x="575.00" y="420" text-anchor="middle" font-family="JetBrains Mono" font-size="11" fill="#6d6254">1.86</text>
<line x1="698.75" y1="40" x2="698.75" y2="400" stroke="#ebe4d6" stroke-width="1"/>
<text x="698.75" y="420" text-anchor="middle" font-family="JetBrains Mono" font-size="11" fill="#6d6254">3.89</text>
<line x1="822.50" y1="40" x2="822.50" y2="400" stroke="#ebe4d6" stroke-width="1"/>
<text x="822.50" y="420" text-anchor="middle" font-family="JetBrains Mono" font-size="11" fill="#6d6254">5.93</text>
<line x1="946.25" y1="40" x2="946.25" y2="400" stroke="#ebe4d6" stroke-width="1"/>
<text x="946.25" y="420" text-anchor="middle" font-family="JetBrains Mono" font-size="11" fill="#6d6254">7.96</text>
<line x1="1070.00" y1="40" x2="1070.00" y2="400" stroke="#ebe4d6" stroke-width="1"/>
<text x="1070.00" y="420" text-anchor="middle" font-family="JetBrains Mono" font-size="11" fill="#6d6254">10.00</text>
<line x1="462.09" y1="40" x2="462.09" y2="400" stroke="#615548" stroke-width="1.5"/>
<line x1="80" y1="240.00" x2="1070" y2="240.00" stroke="#615548" stroke-width="1.5"/>
<polyline points="83.65,96.57 84.86,129.16 86.08,148.38 87.30,160.91 88.51,169.60 89.73,175.86 90.95,180.50 92.16,183.98 93.38,186.61 94.59,188.57 95.81,190.01 97.03,191.02 98.24,191.66 99.46,191.98 100.68,192.02 101.89,191.81 103.11,191.34 104.32,190.64 105.54,189.71 106.76,188.55 107.97,187.14 109.19,185.49 110.41,183.58 111.62,181.39 112.84,178.90 114.05,176.07 115.27,172.89 116.49,169.30 117.70,165.26 118.92,160.72 120.14,155.61 121.35,149.85 122.57,143.35 123.78,136.00 125.00,127.67 126.22,118.20 127.43,107.40 128.65,95.06 129.86,80.89 131.08,64.56 132.30,45.67" fill="none" stroke="#bf5b39" stroke-width="2.2" stroke-linejoin="round" stroke-linecap="round"/>
<polyline points="213.78,394.67 215.00,373.27 216.22,355.42 217.43,340.46 218.65,327.84 219.86,317.13 221.08,308.00 222.30,300.17 223.51,293.42 224.73,287.57 225.95,282.48 227.16,278.02 228.38,274.10 229.59,270.63 230.81,267.54 232.03,264.77 233.24,262.28 234.46,260.03 235.68,257.96 236.89,256.07 238.11,254.30 239.32,252.65 240.54,251.09 241.76,249.59 242.97,248.14 244.19,246.73 245.41,245.32 246.62,243.90 247.84,242.45 249.05,240.95 250.27,239.37 251.49,237.68 252.70,235.85 253.92,233.82 255.14,231.55 256.35,228.96 257.57,225.96 258.78,222.39 260.00,218.07 261.22,212.70 262.43,205.82 263.65,196.67 264.86,183.89 266.08,164.80 267.30,133.20 268.51,71.01" fill="none" stroke="#bf5b39" stroke-width="2.2" stroke-linejoin="round" stroke-linecap="round"/>
<polyline points="275.81,367.65 277.03,347.41 278.24,334.22 279.46,325.03 280.68,318.36 281.89,313.36 283.11,309.56 284.32,306.64 285.54,304.39 286.76,302.68 287.97,301.41 289.19,300.51 290.41,299.92 291.62,299.62 292.84,299.58 294.05,299.78 295.27,300.20 296.49,300.85 297.70,301.72 298.92,302.81 300.14,304.14 301.35,305.71 302.57,307.53 303.78,309.64 305.00,312.04 306.22,314.76 307.43,317.86 308.65,321.35 309.86,325.30 311.08,329.75 312.30,334.79 313.51,340.48 314.73,346.93 315.95,354.26 317.16,362.60 318.38,372.12 319.59,383.03 320.81,395.57" fill="none" stroke="#bf5b39" stroke-width="2.2" stroke-linejoin="round" stroke-linecap="round"/>
<polyline points="398.65,49.29 399.86,93.73 401.08,128.36 402.30,155.50 403.51,176.89 404.73,193.81 405.95,207.25 407.16,217.96 408.38,226.52 409.59,233.37 410.81,238.86 412.03,243.27 413.24,246.81 414.46,249.66 415.68,251.94 416.89,253.77 418.11,255.24 419.32,256.42 420.54,257.36 421.76,258.12 422.97,258.73 424.19,259.23 425.41,259.64 426.62,259.99 427.84,260.30 429.05,260.58 430.27,260.84 431.49,261.11 432.70,261.40 433.92,261.72 435.14,262.07 436.35,262.48 437.57,262.97 438.78,263.53 440.00,264.20 441.22,264.99 442.43,265.94 443.65,267.06 444.86,268.41 446.08,270.04 447.30,272.01 448.51,274.43 449.73,277.42 450.95,281.17 452.16,285.97 453.38,292.25 454.59,300.75 455.81,312.75 457.03,330.80 458.24,360.63" fill="none" stroke="#bf5b39" stroke-width="2.2" stroke-linejoin="round" stroke-linecap="round"/>
<polyline points="470.41,253.94 471.62,239.92 472.84,232.12 474.05,217.22 475.27,205.20 476.49,199.03 477.70,197.81 478.92,199.80 480.14,203.54 481.35,207.97 482.57,212.49 483.78,216.75 485.00,220.59 486.22,223.94 487.43,226.82 488.65,229.25 489.86,231.29 491.08,232.98 492.30,234.37 493.51,235.51 494.73,236.44 495.95,237.20 497.16,237.81 498.38,238.30 499.59,238.70 500.81,239.01 502.03,239.25 503.24,239.44 504.46,239.59 505.68,239.70 506.89,239.79 508.11,239.86 509.32,239.90 510.54,239.94 511.76,239.96 512.97,239.98 514.19,239.99 515.41,239.99 516.62,240.00 517.84,240.00 519.05,240.00 520.27,240.00 521.49,240.00 522.70,240.00 523.92,240.00 525.14,240.00 526.35,240.00 527.57,240.00 528.78,240.00 530.00,240.00 531.22,239.99 532.43,239.99 533.65,239.98 534.86,239.97 536.08,239.96 537.30,239.95 538.51,239.93 539.73,239.91 540.95,239.89 542.16,239.86 543.38,239.83 544.59,239.79 545.81,239.75 547.03,239.70 548.24,239.65 549.46,239.59 550.68,239.52 551.89,239.44 553.11,239.36 554.32,239.28 555.54,239.18 556.76,239.08 557.97,238.96 559.19,238.84 560.41,238.72 561.62,238.58 562.84,238.43 564.05,238.28 565.27,238.11 566.49,237.94 567.70,237.75 568.92,237.56 570.14,237.36 571.35,237.14 572.57,236.92 573.78,236.68 575.00,236.44 576.22,236.18 577.43,235.91 578.65,235.63 579.86,235.34 581.08,235.04 582.30,234.72 583.51,234.39 584.73,234.05 585.95,233.70 587.16,233.34 588.38,232.96 589.59,232.57 590.81,232.17 592.03,231.75 593.24,231.32 594.46,230.88 595.68,230.42 596.89,229.95 598.11,229.46 599.32,228.96 600.54,228.45 601.76,227.92 602.97,227.37 604.19,226.81 605.41,226.24 606.62,225.64 607.84,225.03 609.05,224.41 610.27,223.77 611.49,223.11 612.70,222.43 613.92,221.73 615.14,221.02 616.35,220.29 617.57,219.54 618.78,218.77 620.00,217.98 621.22,217.18 622.43,216.35 623.65,215.50 624.86,214.63 626.08,213.74 627.30,212.83 628.51,211.89 629.73,210.93 630.95,209.95 632.16,208.95 633.38,207.92 634.59,206.87 635.81,205.79 637.03,204.69 638.24,203.56 639.46,202.41 640.68,201.23 641.89,200.02 643.11,198.78 644.32,197.51 645.54,196.22 646.76,194.89 647.97,193.53 649.19,192.15 650.41,190.73 651.62,189.28 652.84,187.79 654.05,186.27 655.27,184.72 656.49,183.13 657.70,181.51 658.92,179.84 660.14,178.14 661.35,176.41 662.57,174.63 663.78,172.81 665.00,170.95 666.22,169.05 667.43,167.11 668.65,165.12 669.86,163.09 671.08,161.02 672.30,158.89 673.51,156.72 674.73,154.50 675.95,152.23 677.16,149.91 678.38,147.54 679.59,145.12 680.81,142.64 682.03,140.11 683.24,137.52 684.46,134.87 685.68,132.16 686.89,129.40 688.11,126.57 689.32,123.68 690.54,120.73 691.76,117.71 692.97,114.63 694.19,111.48 695.41,108.25 696.62,104.96 697.84,101.60 699.05,98.16 700.27,94.65 701.49,91.06 702.70,87.39 703.92,83.64 705.14,79.81 706.35,75.90 707.57,71.90 708.78,67.82 710.00,63.64 711.22,59.38 712.43,55.02 713.65,50.57 714.86,46.03 716.08,41.38" fill="none" stroke="#bf5b39" stroke-width="2.2" stroke-linejoin="round" stroke-linecap="round"/>
<text x="575" y="508" text-anchor="middle" font-family="JetBrains Mono" font-size="12" fill="#4c4338">x</text>
<text x="22" y="220" transform="rotate(-90 22 220)" text-anchor="middle" font-family="JetBrains Mono" font-size="12" fill="#4c4338">y</text>
<text x="1066" y="508" text-anchor="end" font-family="JetBrains Mono" font-size="10" fill="#8c7f71">Y clipped to [-20.00; 25.00]</text>
</svg>