<svg xmlns="http://www.w3.org/2000/svg" width="1100" height="520" viewBox="0 0 1100 520">
<rect width="100%" height="100%" fill="#fcfbf7"/>
<rect x="20" y="20" width="1060" height="480" rx="18" fill="#fffef8" stroke="#d6cfbf" stroke-width="1.5"/>
<text x="550" y="28" text-anchor="middle" font-family="JetBrains Mono" font-size="20" fill="#3a3127">system(x), trig branch</text>
<rect x="80" y="40" width="990" height="360" fill="#fffdfa" stroke="#e5dece" stroke-width="1"/>
<line x1="80" y1="400.00" x2="1070" y2="400.00" stroke="#ebe4d6" stroke-width="1"/>
<text x="70" y="404.00" text-anchor="end" font-family="JetBrains Mono" font-size="11" fill="#6d6254">-12000.00</text>
<line x1="80" y1="340.00" x2="1070" y2="340.00" stroke="#ebe4d6" stroke-width="1"/>
<text x="70" y="344.00" text-anchor="end" font-family="JetBrains Mono" font-size="11" fill="#6d6254">-8000.00</text>
<line x1="80" y1="280.00" x2="1070" y2="280.00" stroke="#ebe4d6" stroke-width="1"/>
<text x="70" y="284.00" text-anchor="end" font-family="JetBrains Mono" font-size="11" fill="#6d6254">-4000.00</text>
<line x1="80" y1="220.00" x2="1070" y2="220.00" stroke="#ebe4d6" stroke-width="1"/>
<text x="70" y="224.00" text-anchor="end" font-family="JetBrains Mono" font-size="11" fill="#6d6254">0.00</text>
<line x1="80" y1="160.00" x2="1070" y2="160.00" stroke="#ebe4d6" stroke-width="1"/>
<text x="70" y="164.00" text-anchor="end" font-family="JetBrains Mono" font-size="11" fill="#6d6254">4000.00</text>
<line x1="80" y1="100.00" x2="1070" y2="100.00" stroke="#ebe4d6" stroke-width="1"/>
<text x="70" y="104.00" text-anchor="end" font-family="JetBrains Mono" font-size="11" fill="#6d6254">8000.00</text>
<line x1="80" y1="40.00" x2="1070" y2="40.00" stroke="#ebe4d6" stroke-width="1"/>
<text x="70" y="44.00" text-anchor="end" font-family="JetBrains Mono" font-size="11" fill="#6d6254">12000.00</text>
<line x1="80.00" y1="40" x2="80.00" y2="400" stroke="#ebe4d6" stroke-width="1"/>
<text x="80.00" y="420" text-anchor="middle" font-family="JetBrains Mono" font-size="11" fill="#6d6254">-7.50</text>
<line x1="203.75" y1="40" x2="203.75" y2="400" stroke="#ebe4d6" stroke-width="1"/>
<text x="203.75" y="420" text-anchor="middle" font-family="JetBrains Mono" font-size="11" fill="#6d6254">-6.56</text>
<line x1="327.50" y1="40" x2="327.50" y2="400" stroke="#ebe4d6" stroke-width="1"/>
<text x="327.50" y="420" text-anchor="middle" font-family="JetBrains Mono" font-size="11" fill="#6d6254">-5.63</text>
<line x1="451.25" y1="40" x2="451.25" y2="400" stroke="#ebe4d6" stroke-width="1"/>
<text x="451.25" y="420" text-anchor="middle" font-family="JetBrains Mono" font-size="11" fill="#6d6254">-4.69</text>
<line x1="575.00" y1="40" x2="575.00" y2="400" stroke="#ebe4d6" stroke-width="1"/>
<text x="575.00" y="420" text-anchor="middle" font-family="JetBrains Mono" font-size="11" fill="#6d6254">-3.76</text>
<line x1="698.75" y1="40" x2="698.75" y2="400" stroke="#ebe4d6" stroke-width="1"/>
<text x="698.75" y="420" text-anchor="middle" font-family="JetBrains Mono" font-size="11" fill="#6d6254">-2.82</text>
<line x1="822.50" y1="40" x2="822.50" y2="400" stroke="#ebe4d6" stroke-width="1"/>
<text x="822.50" y="420" text-anchor="middle" font-family="JetBrains Mono" font-size="11" fill="#6d6254">-1.88</text>
<line x1="946.25" y1="40" x2="946.25" y2="400" stroke="#ebe4d6" stroke-width="1"/>
<text x="946.25" y="420" text-anchor="middle" font-family="JetBrains Mono" font-size="11" fill="#6d6254">-0.95</text>
<line x1="1070.00" y1="40" x2="1070.00" y2="400" stroke="#ebe4d6" stroke-width="1"/>
<text x="1070.00" y="420" text-anchor="middle" font-family="JetBrains Mono" font-size="11" fill="#6d6254">-0.01</text>
<line x1="80" y1="220.00" x2="1070" y2="220.00" stroke="#615548" stroke-width="1.5"/>
<polyline points="80.00,221.23 81.32,221.11 82.64,221.00 83.97,220.91 85.29,220.82 86.61,220.75 87.93,220.69 89.25,220.63 90.57,220.58 91.90,220.53 93.22,220.49 94.54,220.45 95.86,220.41 97.18,220.38 98.50,220.35 99.83,220.33 101.15,220.30 102.47,220.28 103.79,220.26 105.11,220.25 106.44,220.23 107.76,220.21 109.08,220.20 110.40,220.19 111.72,220.17 113.04,220.16 114.37,220.15 115.69,220.14 117.01,220.13 118.33,220.13 119.65,220.12 120.97,220.11 122.30,220.10 123.62,220.10 124.94,220.09 126.26,220.08 127.58,220.08 128.91,220.07 130.23,220.07 131.55,220.06 132.87,220.06 134.19,220.06 135.51,220.05 136.84,220.05 138.16,220.04 139.48,220.04 140.80,220.04 142.12,220.03 143.44,220.03 144.77,220.03 146.09,220.03 147.41,220.02 148.73,220.02 150.05,220.02 151.38,220.01 152.70,220.01 154.02,220.01 155.34,220.01 156.66,220.00 157.98,220.00 159.31,220.00 160.63,220.00 161.95,219.99 163.27,219.99 164.59,219.99 165.91,219.99 167.24,219.99 168.56,219.98 169.88,219.98 171.20,219.98 172.52,219.98 173.85,219.97 175.17,219.97 176.49,219.97 177.81,219.96 179.13,219.96 180.45,219.96 181.78,219.95 183.10,219.95 184.42,219.95 185.74,219.94 187.06,219.94 188.38,219.93 189.71,219.93 191.03,219.92 192.35,219.92 193.67,219.91 194.99,219.91 196.32,219.90 197.64,219.89 198.96,219.88 200.28,219.87 201.60,219.86 202.92,219.85 204.25,219.84 205.57,219.83 206.89,219.81 208.21,219.80 209.53,219.78 210.85,219.75 212.18,219.73 213.50,219.70 214.82,219.67 216.14,219.63 217.46,219.58 218.79,219.53 220.11,219.46 221.43,219.38 222.75,219.28 224.07,219.16 225.39,219.00 226.72,218.80 228.04,218.53 229.36,218.15 230.68,217.62 232.00,216.83 233.32,215.59 234.65,213.44 235.97,209.31 237.29,199.66 238.61,167.80" fill="none" stroke="#bf5b39" stroke-width="2.2" stroke-linejoin="round" stroke-linecap="round"/>
<polyline points="242.58,132.55 243.90,191.41 245.22,205.89 246.54,211.57 247.86,214.38 249.19,215.97 250.51,216.95 251.83,217.61 253.15,218.07 254.47,218.40 255.79,218.65 257.12,218.85 258.44,219.00 259.76,219.12 261.08,219.22 262.40,219.30 263.72,219.36 265.05,219.42 266.37,219.47 267.69,219.51 269.01,219.55 270.33,219.58 271.66,219.60 272.98,219.63 274.30,219.65 275.62,219.67 276.94,219.68 278.26,219.70 279.59,219.71 280.91,219.72 282.23,219.73 283.55,219.74 284.87,219.75 286.19,219.76 287.52,219.77 288.84,219.77 290.16,219.78 291.48,219.78 292.80,219.79 294.13,219.79 295.45,219.79 296.77,219.80 298.09,219.80 299.41,219.80 300.73,219.80 302.06,219.80 303.38,219.81 304.70,219.81 306.02,219.81 307.34,219.81 308.66,219.81 309.99,219.81 311.31,219.81 312.63,219.81 313.95,219.80 315.27,219.80 316.60,219.80 317.92,219.80 319.24,219.80 320.56,219.79 321.88,219.79 323.20,219.79 324.53,219.79 325.85,219.78 327.17,219.78 328.49,219.77 329.81,219.77 331.13,219.76 332.46,219.76 333.78,219.75 335.10,219.74 336.42,219.74 337.74,219.73 339.07,219.72 340.39,219.71 341.71,219.70 343.03,219.69 344.35,219.68 345.67,219.67 347.00,219.66 348.32,219.65 349.64,219.63 350.96,219.62 352.28,219.60 353.60,219.58 354.93,219.56 356.25,219.54 357.57,219.52 358.89,219.49 360.21,219.47 361.54,219.44 362.86,219.41 364.18,219.37 365.50,219.33 366.82,219.29 368.14,219.25 369.47,219.20 370.79,219.15 372.11,219.09 373.43,219.03 374.75,218.96 376.07,218.88 377.40,218.79 378.72,218.70 380.04,218.59 381.36,218.47 382.68,218.34 384.01,218.20 385.33,218.03 386.65,217.85 387.97,217.64 389.29,217.41 390.61,217.14 391.94,216.84 393.26,216.49 394.58,216.10 395.90,215.64 397.22,215.12 398.54,214.52 399.87,213.81 401.19,212.99 402.51,212.02 403.83,210.88 405.15,209.53 406.48,207.93 407.80,206.00 409.12,203.67 410.44,200.85 411.76,197.39 413.08,193.13 414.41,187.83 415.73,181.19 417.05,172.79 418.37,162.04 419.69,148.13 421.01,129.92 422.34,105.75 423.66,73.20" fill="none" stroke="#bf5b39" stroke-width="2.2" stroke-linejoin="round" stroke-linecap="round"/>
<polyline points="472.56,360.10 473.89,327.14 475.21,303.07 476.53,285.21 477.85,271.77 479.17,261.53 480.49,253.63 481.82,247.48 483.14,242.63 484.46,238.78 485.78,235.69 487.10,233.19 488.42,231.16 489.75,229.50 491.07,228.13 492.39,226.99 493.71,226.04 495.03,225.24 496.36,224.57 497.68,224.00 499.00,223.51 500.32,223.10 501.64,222.74 502.96,222.43 504.29,222.17 505.61,221.94 506.93,221.74 508.25,221.56 509.57,221.41 510.89,221.27 512.22,221.15 513.54,221.04 514.86,220.95 516.18,220.87 517.50,220.79 518.83,220.73 520.15,220.67 521.47,220.61 522.79,220.56 524.11,220.52 525.43,220.48 526.76,220.45 528.08,220.41 529.40,220.39 530.72,220.36 532.04,220.33 533.36,220.31 534.69,220.29 536.01,220.27 537.33,220.26 538.65,220.24 539.97,220.23 541.30,220.21 542.62,220.20 543.94,220.19 545.26,220.18 546.58,220.17 547.90,220.16 549.23,220.15 550.55,220.14 551.87,220.13 553.19,220.13 554.51,220.12 555.83,220.11 557.16,220.11 558.48,220.10 559.80,220.10 561.12,220.09 562.44,220.09 563.77,220.08 565.09,220.08 566.41,220.08 567.73,220.07 569.05,220.07 570.37,220.06 571.70,220.06 573.02,220.06 574.34,220.05 575.66,220.05 576.98,220.05 578.30,220.05 579.63,220.04 580.95,220.04 582.27,220.04 583.59,220.03 584.91,220.03 586.23,220.03 587.56,220.02 588.88,220.02 590.20,220.02 591.52,220.02 592.84,220.01 594.17,220.01 595.49,220.01 596.81,220.00 598.13,220.00 599.45,220.00 600.77,219.99 602.10,219.99 603.42,219.98 604.74,219.98 606.06,219.97 607.38,219.97 608.70,219.96 610.03,219.96 611.35,219.95 612.67,219.94 613.99,219.93 615.31,219.92 616.64,219.91 617.96,219.90 619.28,219.89 620.60,219.88 621.92,219.86 623.24,219.85 624.57,219.83 625.89,219.81 627.21,219.78 628.53,219.76 629.85,219.72 631.17,219.69 632.50,219.64 633.82,219.59 635.14,219.52 636.46,219.45 637.78,219.35 639.11,219.23 640.43,219.08 641.75,218.89 643.07,218.63 644.39,218.28 645.71,217.78 647.04,217.04 648.36,215.89 649.68,213.93 651.00,210.25 652.32,201.97 653.64,176.57" fill="none" stroke="#bf5b39" stroke-width="2.2" stroke-linejoin="round" stroke-linecap="round"/>
<polyline points="657.61,107.12 658.93,187.16 660.25,204.52 661.58,210.99 662.90,214.10 664.22,215.83 665.54,216.89 666.86,217.59 668.18,218.07 669.51,218.42 670.83,218.69 672.15,218.89 673.47,219.04 674.79,219.17 676.11,219.27 677.44,219.36 678.76,219.43 680.08,219.49 681.40,219.54 682.72,219.58 684.05,219.62 685.37,219.65 686.69,219.68 688.01,219.71 689.33,219.73 690.65,219.75 691.98,219.77 693.30,219.78 694.62,219.80 695.94,219.81 697.26,219.82 698.58,219.83 699.91,219.84 701.23,219.85 702.55,219.86 703.87,219.87 705.19,219.88 706.52,219.89 707.84,219.89 709.16,219.90 710.48,219.90 711.80,219.91 713.12,219.91 714.45,219.92 715.77,219.92 717.09,219.93 718.41,219.93 719.73,219.94 721.05,219.94 722.38,219.94 723.70,219.95 725.02,219.95 726.34,219.95 727.66,219.96 728.99,219.96 730.31,219.96 731.63,219.96 732.95,219.97 734.27,219.97 735.59,219.97 736.92,219.97 738.24,219.98 739.56,219.98 740.88,219.98 742.20,219.98 743.52,219.99 744.85,219.99 746.17,219.99 747.49,219.99 748.81,220.00 750.13,220.00 751.46,220.00 752.78,220.00 754.10,220.01 755.42,220.01 756.74,220.01 758.06,220.02 759.39,220.02 760.71,220.02 762.03,220.02 763.35,220.03 764.67,220.03 765.99,220.03 767.32,220.04 768.64,220.04 769.96,220.05 771.28,220.05 772.60,220.06 773.93,220.06 775.25,220.06 776.57,220.07 777.89,220.08 779.21,220.08 780.53,220.09 781.86,220.10 783.18,220.10 784.50,220.11 785.82,220.12 787.14,220.13 788.46,220.14 789.79,220.15 791.11,220.16 792.43,220.17 793.75,220.19 795.07,220.20 796.40,220.22 797.72,220.24 799.04,220.26 800.36,220.28 801.68,220.30 803.00,220.33 804.33,220.36 805.65,220.39 806.97,220.43 808.29,220.47 809.61,220.52 810.93,220.57 812.26,220.63 813.58,220.70 814.90,220.78 816.22,220.87 817.54,220.97 818.87,221.09 820.19,221.22 821.51,221.38 822.83,221.57 824.15,221.78 825.47,222.04 826.80,222.35 828.12,222.71 829.44,223.15 830.76,223.69 832.08,224.34 833.40,225.15 834.73,226.15 836.05,227.42 837.37,229.03 838.69,231.10 840.01,233.80 841.34,237.38 842.66,242.20 843.98,248.81 845.30,258.09 846.62,271.42 847.94,291.12 849.27,321.21 850.59,369.01" fill="none" stroke="#bf5b39" stroke-width="2.2" stroke-linejoin="round" stroke-linecap="round"/>
<polyline points="877.02,374.29 878.34,326.41 879.67,295.84 880.99,275.57 882.31,261.68 883.63,251.91 884.95,244.87 886.28,239.68 887.60,235.79 888.92,232.83 890.24,230.54 891.56,228.75 892.88,227.32 894.21,226.18 895.53,225.26 896.85,224.50 898.17,223.88 899.49,223.37 900.81,222.94 902.14,222.57 903.46,222.26 904.78,222.00 906.10,221.78 907.42,221.58 908.74,221.42 910.07,221.27 911.39,221.14 912.71,221.03 914.03,220.94 915.35,220.85 916.68,220.77 918.00,220.71 919.32,220.65 920.64,220.59 921.96,220.54 923.28,220.50 924.61,220.46 925.93,220.42 927.25,220.39 928.57,220.36 929.89,220.34 931.21,220.31 932.54,220.29 933.86,220.27 935.18,220.25 936.50,220.23 937.82,220.22 939.15,220.20 940.47,220.19 941.79,220.18 943.11,220.17 944.43,220.16 945.75,220.15 947.08,220.14 948.40,220.13 949.72,220.12 951.04,220.11 952.36,220.11 953.68,220.10 955.01,220.09 956.33,220.09 957.65,220.08 958.97,220.08 960.29,220.07 961.62,220.07 962.94,220.06 964.26,220.06 965.58,220.05 966.90,220.05 968.22,220.05 969.55,220.04 970.87,220.04 972.19,220.04 973.51,220.03 974.83,220.03 976.15,220.03 977.48,220.02 978.80,220.02 980.12,220.02 981.44,220.02 982.76,220.01 984.09,220.01 985.41,220.01 986.73,220.01 988.05,220.00 989.37,220.00 990.69,220.00 992.02,220.00 993.34,219.99 994.66,219.99 995.98,219.99 997.30,219.99 998.62,219.98 999.95,219.98 1001.27,219.98 1002.59,219.98 1003.91,219.97 1005.23,219.97 1006.56,219.97 1007.88,219.96 1009.20,219.96 1010.52,219.96 1011.84,219.95 1013.16,219.95 1014.49,219.95 1015.81,219.94 1017.13,219.94 1018.45,219.94 1019.77,219.93 1021.09,219.93 1022.42,219.92 1023.74,219.91 1025.06,219.91 1026.38,219.90 1027.70,219.89 1029.03,219.89 1030.35,219.88 1031.67,219.87 1032.99,219.86 1034.31,219.85 1035.63,219.83 1036.96,219.82 1038.28,219.80 1039.60,219.78 1040.92,219.76 1042.24,219.74 1043.56,219.71 1044.89,219.68 1046.21,219.64 1047.53,219.60 1048.85,219.55 1050.17,219.48 1051.50,219.41 1052.82,219.32 1054.14,219.20 1055.46,219.06 1056.78,218.87 1058.10,218.62 1059.43,218.29 1060.75,217.81 1062.07,217.12 1063.39,216.05 1064.71,214.27 1066.03,210.97 1067.36,203.80 1068.68,183.22 1070.00,71.47" fill="none" stroke="#bf5b39" stroke-width="2.2" stroke-linejoin="round" stroke-linecap="round"/>
<circle cx="136.84" cy="220.05" r="4.5" fill="#2a6f97" stroke="#fffdfa" stroke-width="1.5"/>
<line x1="136.84" y1="220.05" x2="154.84" y2="203.05" stroke="#2a6f97" stroke-width="1.2"/>
<text x="154.84" y="208.05" text-anchor="start" font-family="JetBrains Mono" font-size="10" fill="#2a6f97">x=-7.07</text>
<circle cx="865.13" cy="400.00" r="4.5" fill="#2a6f97" stroke="#fffdfa" stroke-width="1.5"/>
<line x1="865.13" y1="400.00" x2="847.13" y2="417.00" stroke="#2a6f97" stroke-width="1.2"/>
<text x="847.13" y="422.00" text-anchor="end" font-family="JetBrains Mono" font-size="10" fill="#2a6f97">x=-1.56</text>
<circle cx="966.90" cy="220.05" r="4.5" fill="#2a6f97" stroke="#fffdfa" stroke-width="1.5"/>
<line x1="966.90" y1="220.05" x2="984.90" y2="203.05" stroke="#2a6f97" stroke-width="1.2"/>
<text x="984.90" y="208.05" text-anchor="start" font-family="JetBrains Mono" font-size="10" fill="#2a6f97">x=-0.79</text>
<text x="575" y="508" text-anchor="middle" font-family="JetBrains Mono" font-size="12" fill="#4c4338">x</text>
<text x="22" y="220" transform="rotate(-90 22 220)" text-anchor="middle" font-family="JetBrains Mono" font-size="12" fill="#4c4338">y</text>
<text x="1066" y="508" text-anchor="end" font-family="JetBrains Mono" font-size="10" fill="#8c7f71">Y clipped to [-12000.00; 12000.00]</text>
</svg>