<svg xmlns="http://www.w3.org/2000/svg" width="1100" height="520" viewBox="0 0 1100 520">
<rect width="100%" height="100%" fill="#fcfbf7"/>
<rect x="20" y="20" width="1060" height="480" rx="18" fill="#fffef8" stroke="#d6cfbf" stroke-width="1.5"/>
<text x="550" y="28" text-anchor="middle" font-family="JetBrains Mono" font-size="20" fill="#3a3127">system(x), log branch</text>
<rect x="80" y="40" width="990" height="360" fill="#fffdfa" stroke="#e5dece" stroke-width="1"/>
<line x1="80" y1="400.00" x2="1070" y2="400.00" stroke="#ebe4d6" stroke-width="1"/>
<text x="70" y="404.00" text-anchor="end" font-family="JetBrains Mono" font-size="11" fill="#6d6254">-1.00</text>
<line x1="80" y1="340.00" x2="1070" y2="340.00" stroke="#ebe4d6" stroke-width="1"/>
<text x="70" y="344.00" text-anchor="end" font-family="JetBrains Mono" font-size="11" fill="#6d6254">832.50</text>
<line x1="80" y1="280.00" x2="1070" y2="280.00" stroke="#ebe4d6" stroke-width="1"/>
<text x="70" y="284.00" text-anchor="end" font-family="JetBrains Mono" font-size="11" fill="#6d6254">1666.00</text>
<line x1="80" y1="220.00" x2="1070" y2="220.00" stroke="#ebe4d6" stroke-width="1"/>
<text x="70" y="224.00" text-anchor="end" font-family="JetBrains Mono" font-size="11" fill="#6d6254">2499.50</text>
<line x1="80" y1="160.00" x2="1070" y2="160.00" stroke="#ebe4d6" stroke-width="1"/>
<text x="70" y="164.00" text-anchor="end" font-family="JetBrains Mono" font-size="11" fill="#6d6254">3333.00</text>
<line x1="80" y1="100.00" x2="1070" y2="100.00" stroke="#ebe4d6" stroke-width="1"/>
<text x="70" y="104.00" text-anchor="end" font-family="JetBrains Mono" font-size="11" fill="#6d6254">4166.50</text>
<line x1="80" y1="40.00" x2="1070" y2="40.00" stroke="#ebe4d6" stroke-width="1"/>
<text x="70" y="44.00" text-anchor="end" font-family="JetBrains Mono" font-size="11" fill="#6d6254">5000.00</text>
<line x1="80.00" y1="40" x2="80.00" y2="400" stroke="#ebe4d6" stroke-width="1"/>
<text x="80.00" y="420" text-anchor="middle" font-family="JetBrains Mono" font-size="11" fill="#6d6254">0.10</text>
<line x1="203.75" y1="40" x2="203.75" y2="400" stroke="#ebe4d6" stroke-width="1"/>
<text x="203.75" y="420" text-anchor="middle" font-family="JetBrains Mono" font-size="11" fill="#6d6254">1.34</text>
<line x1="327.50" y1="40" x2="327.50" y2="400" stroke="#ebe4d6" stroke-width="1"/>
<text x="327.50" y="420" text-anchor="middle" font-family="JetBrains Mono" font-size="11" fill="#6d6254">2.57</text>
<line x1="451.25" y1="40" x2="451.25" y2="400" stroke="#ebe4d6" stroke-width="1"/>
<text x="451.25" y="420" text-anchor="middle" font-family="JetBrains Mono" font-size="11" fill="#6d6254">3.81</text>
<line x1="575.00" y1="40" x2="575.00" y2="400" stroke="#ebe4d6" stroke-width="1"/>
<text x="575.00" y="420" text-anchor="middle" font-family="JetBrains Mono" font-size="11" fill="#6d6254">5.05</text>
<line x1="698.75" y1="40" x2="698.75" y2="400" stroke="#ebe4d6" stroke-width="1"/>
<text x="698.75" y="420" text-anchor="middle" font-family="JetBrains Mono" font-size="11" fill="#6d6254">6.29</text>
<line x1="822.50" y1="40" x2="822.50" y2="400" stroke="#ebe4d6" stroke-width="1"/>
<text x="822.50" y="420" text-anchor="middle" font-family="JetBrains Mono" font-size="11" fill="#6d6254">7.52</text>
<line x1="946.25" y1="40" x2="946.25" y2="400" stroke="#ebe4d6" stroke-width="1"/>
<text x="946.25" y="420" text-anchor="middle" font-family="JetBrains Mono" font-size="11" fill="#6d6254">8.76</text>
<line x1="1070.00" y1="40" x2="1070.00" y2="400" stroke="#ebe4d6" stroke-width="1"/>
<text x="1070.00" y="420" text-anchor="middle" font-family="JetBrains Mono" font-size="11" fill="#6d6254">10.00</text>
<line x1="80" y1="399.93" x2="1070" y2="399.93" stroke="#615548" stroke-width="1.5"/>
<polyline points="84.00,399.98 86.00,399.92 88.00,399.84 90.00,399.70 92.00,399.60 94.00,399.55 96.00,399.55 98.00,399.57 100.00,399.61 102.00,399.65 104.00,399.69 106.00,399.72 108.00,399.76 110.00,399.79 112.00,399.81 114.00,399.83 116.00,399.85 118.00,399.87 120.00,399.88 122.00,399.89 124.00,399.90 126.00,399.90 128.00,399.91 130.00,399.91 132.00,399.92 134.00,399.92 136.00,399.92 138.00,399.92 140.00,399.92 142.00,399.93 144.00,399.93 146.00,399.93 148.00,399.93 150.00,399.93 152.00,399.93 154.00,399.93 156.00,399.93 158.00,399.93 160.00,399.93 162.00,399.93 164.00,399.93 166.00,399.93 168.00,399.93 170.00,399.93 172.00,399.93 174.00,399.93 176.00,399.93 178.00,399.93 180.00,399.93 182.00,399.93 184.00,399.93 186.00,399.93 188.00,399.93 190.00,399.93 192.00,399.93 194.00,399.93 196.00,399.93 198.00,399.93 200.00,399.93 202.00,399.93 204.00,399.93 206.00,399.93 208.00,399.93 210.00,399.93 212.00,399.92 214.00,399.92 216.00,399.92 218.00,399.92 220.00,399.92 222.00,399.92 224.00,399.92 226.00,399.92 228.00,399.92 230.00,399.92 232.00,399.92 234.00,399.92 236.00,399.91 238.00,399.91 240.00,399.91 242.00,399.91 244.00,399.91 246.00,399.91 248.00,399.90 250.00,399.90 252.00,399.90 254.00,399.90 256.00,399.90 258.00,399.89 260.00,399.89 262.00,399.89 264.00,399.89 266.00,399.88 268.00,399.88 270.00,399.88 272.00,399.87 274.00,399.87 276.00,399.87 278.00,399.86 280.00,399.86 282.00,399.86 284.00,399.85 286.00,399.85 288.00,399.85 290.00,399.84 292.00,399.84 294.00,399.83 296.00,399.83 298.00,399.82 300.00,399.82 302.00,399.81 304.00,399.81 306.00,399.80 308.00,399.80 310.00,399.79 312.00,399.79 314.00,399.78 316.00,399.78 318.00,399.77 320.00,399.76 322.00,399.76 324.00,399.75 326.00,399.74 328.00,399.74 330.00,399.73 332.00,399.72 334.00,399.71 336.00,399.71 338.00,399.70 340.00,399.69 342.00,399.68 344.00,399.67 346.00,399.67 348.00,399.66 350.00,399.65 352.00,399.64 354.00,399.63 356.00,399.62 358.00,399.61 360.00,399.60 362.00,399.59 364.00,399.58 366.00,399.57 368.00,399.56 370.00,399.54 372.00,399.53 374.00,399.52 376.00,399.51 378.00,399.50 380.00,399.48 382.00,399.47 384.00,399.46 386.00,399.44 388.00,399.43 390.00,399.41 392.00,399.40 394.00,399.38 396.00,399.37 398.00,399.35 400.00,399.34 402.00,399.32 404.00,399.30 406.00,399.29 408.00,399.27 410.00,399.25 412.00,399.23 414.00,399.21 416.00,399.20 418.00,399.18 420.00,399.16 422.00,399.13 424.00,399.11 426.00,399.09 428.00,399.07 430.00,399.05 432.00,399.03 434.00,399.00 436.00,398.98 438.00,398.95 440.00,398.93 442.00,398.90 444.00,398.88 446.00,398.85 448.00,398.82 450.00,398.80 452.00,398.77 454.00,398.74 456.00,398.71 458.00,398.68 460.00,398.65 462.00,398.61 464.00,398.58 466.00,398.55 468.00,398.52 470.00,398.48 472.00,398.45 474.00,398.41 476.00,398.37 478.00,398.34 480.00,398.30 482.00,398.26 484.00,398.22 486.00,398.18 488.00,398.13 490.00,398.09 492.00,398.05 494.00,398.00 496.00,397.96 498.00,397.91 500.00,397.86 502.00,397.81 504.00,397.76 506.00,397.71 508.00,397.66 510.00,397.61 512.00,397.56 514.00,397.50 516.00,397.44 518.00,397.39 520.00,397.33 522.00,397.27 524.00,397.21 526.00,397.14 528.00,397.08 530.00,397.02 532.00,396.95 534.00,396.88 536.00,396.81 538.00,396.74 540.00,396.67 542.00,396.60 544.00,396.52 546.00,396.44 548.00,396.37 550.00,396.29 552.00,396.20 554.00,396.12 556.00,396.04 558.00,395.95 560.00,395.86 562.00,395.77 564.00,395.68 566.00,395.59 568.00,395.49 570.00,395.39 572.00,395.29 574.00,395.19 576.00,395.09 578.00,394.98 580.00,394.87 582.00,394.76 584.00,394.65 586.00,394.54 588.00,394.42 590.00,394.30 592.00,394.18 594.00,394.06 596.00,393.93 598.00,393.80 600.00,393.67 602.00,393.54 604.00,393.40 606.00,393.26 608.00,393.12 610.00,392.98 612.00,392.83 614.00,392.68 616.00,392.53 618.00,392.37 620.00,392.22 622.00,392.05 624.00,391.89 626.00,391.72 628.00,391.55 630.00,391.38 632.00,391.20 634.00,391.02 636.00,390.84 638.00,390.65 640.00,390.46 642.00,390.26 644.00,390.07 646.00,389.86 648.00,389.66 650.00,389.45 652.00,389.24 654.00,389.02 656.00,388.80 658.00,388.57 660.00,388.34 662.00,388.11 664.00,387.87 666.00,387.63 668.00,387.38 670.00,387.13 672.00,386.88 674.00,386.62 676.00,386.36 678.00,386.09 680.00,385.81 682.00,385.53 684.00,385.25 686.00,384.96 688.00,384.67 690.00,384.37 692.00,384.06 694.00,383.75 696.00,383.44 698.00,383.12 700.00,382.79 702.00,382.46 704.00,382.12 706.00,381.78 708.00,381.43 710.00,381.08 712.00,380.72 714.00,380.35 716.00,379.98 718.00,379.60 720.00,379.21 722.00,378.82 724.00,378.42 726.00,378.01 728.00,377.60 730.00,377.18 732.00,376.75 734.00,376.32 736.00,375.88 738.00,375.43 740.00,374.97 742.00,374.51 744.00,374.04 746.00,373.56 748.00,373.07 750.00,372.58 752.00,372.07 754.00,371.56 756.00,371.04 758.00,370.51 760.00,369.98 762.00,369.43 764.00,368.88 766.00,368.32 768.00,367.75 770.00,367.16 772.00,366.57 774.00,365.98 776.00,365.37 778.00,364.75 780.00,364.12 782.00,363.48 784.00,362.83 786.00,362.18 788.00,361.51 790.00,360.83 792.00,360.14 794.00,359.44 796.00,358.73 798.00,358.01 800.00,357.28 802.00,356.53 804.00,355.78 806.00,355.01 808.00,354.23 810.00,353.44 812.00,352.64 814.00,351.82 816.00,351.00 818.00,350.16 820.00,349.31 822.00,348.44 824.00,347.56 826.00,346.67 828.00,345.77 830.00,344.85 832.00,343.92 834.00,342.98 836.00,342.02 838.00,341.05 840.00,340.06 842.00,339.06 844.00,338.05 846.00,337.02 848.00,335.97 850.00,334.91 852.00,333.84 854.00,332.75 856.00,331.64 858.00,330.52 860.00,329.38 862.00,328.23 864.00,327.05 866.00,325.87 868.00,324.66 870.00,323.44 872.00,322.20 874.00,320.95 876.00,319.68 878.00,318.38 880.00,317.08 882.00,315.75 884.00,314.40 886.00,313.04 888.00,311.66 890.00,310.26 892.00,308.83 894.00,307.39 896.00,305.93 898.00,304.45 900.00,302.95 902.00,301.43 904.00,299.89 906.00,298.33 908.00,296.75 910.00,295.15 912.00,293.52 914.00,291.87 916.00,290.20 918.00,288.51 920.00,286.80 922.00,285.06 924.00,283.30 926.00,281.52 928.00,279.72 930.00,277.89 932.00,276.03 934.00,274.16 936.00,272.26 938.00,270.33 940.00,268.38 942.00,266.40 944.00,264.40 946.00,262.37 948.00,260.32 950.00,258.24 952.00,256.13 954.00,254.00 956.00,251.84 958.00,249.65 960.00,247.44 962.00,245.19 964.00,242.92 966.00,240.62 968.00,238.29 970.00,235.94 972.00,233.55 974.00,231.13 976.00,228.69 978.00,226.21 980.00,223.70 982.00,221.17 984.00,218.60 986.00,216.00 988.00,213.36 990.00,210.70 992.00,208.00 994.00,205.27 996.00,202.51 998.00,199.71 1000.00,196.88 1002.00,194.02 1004.00,191.12 1006.00,188.19 1008.00,185.22 1010.00,182.22 1012.00,179.18 1014.00,176.11 1016.00,173.00 1018.00,169.85 1020.00,166.66 1022.00,163.44 1024.00,160.18 1026.00,156.88 1028.00,153.55 1030.00,150.17 1032.00,146.76 1034.00,143.30 1036.00,139.81 1038.00,136.28 1040.00,132.70 1042.00,129.09 1044.00,125.43 1046.00,121.73 1048.00,117.99 1050.00,114.21 1052.00,110.38 1054.00,106.51 1056.00,102.60 1058.00,98.64 1060.00,94.64 1062.00,90.59 1064.00,86.50 1066.00,82.36 1068.00,78.18 1070.00,73.95" fill="none" stroke="#bf5b39" stroke-width="2.2" stroke-linejoin="round" stroke-linecap="round"/>
<circle cx="120.00" cy="399.88" r="4.5" fill="#2a6f97" stroke="#fffdfa" stroke-width="1.5"/>
<line x1="120.00" y1="399.88" x2="138.00" y2="382.88" stroke="#2a6f97" stroke-width="1.2"/>
<text x="138.00" y="387.88" text-anchor="start" font-family="JetBrains Mono" font-size="10" fill="#2a6f97">x=0.50</text>
<circle cx="170.00" cy="399.93" r="4.5" fill="#2a6f97" stroke="#fffdfa" stroke-width="1.5"/>
<line x1="170.00" y1="399.93" x2="152.00" y2="416.93" stroke="#2a6f97" stroke-width="1.2"/>
<text x="152.00" y="421.93" text-anchor="end" font-family="JetBrains Mono" font-size="10" fill="#2a6f97">x=1.00</text>
<circle cx="370.00" cy="399.54" r="4.5" fill="#2a6f97" stroke="#fffdfa" stroke-width="1.5"/>
<line x1="370.00" y1="399.54" x2="388.00" y2="382.54" stroke="#2a6f97" stroke-width="1.2"/>
<text x="388.00" y="387.54" text-anchor="start" font-family="JetBrains Mono" font-size="10" fill="#2a6f97">x=3.00</text>
<text x="575" y="508" text-anchor="middle" font-family="JetBrains Mono" font-size="12" fill="#4c4338">x</text>
<text x="22" y="220" transform="rotate(-90 22 220)" text-anchor="middle" font-family="JetBrains Mono" font-size="12" fill="#4c4338">y</text>
<text x="1066" y="508" text-anchor="end" font-family="JetBrains Mono" font-size="10" fill="#8c7f71">Y clipped to [-1.00; 5000.00]</text>
</svg>